<svg width="24" height="24" viewBox="0 0 24 24" fill="none" xmlns="http://www.w3.org/2000/svg">
  <path d="M18 8C19.6569 8 21 6.65685 21 5C21 3.34315 19.6569 2 18 2C16.3431 2 15 3.34315 15 5C15 5.12548 15.0077 5.24917 15.0227 5.37061L8.08264 9.12833C7.54057 8.43597 6.7747 8 5.9 8C4.24315 8 2.9 9.34315 2.9 11C2.9 12.6569 4.24315 14 5.9 14C6.7747 14 7.54057 13.564 8.08264 12.8717L15.0227 16.6294C15.0077 16.7508 15 16.8745 15 17C15 18.6569 16.3431 20 18 20C19.6569 20 21 18.6569 21 17C21 15.3431 19.6569 14 18 14C17.1253 14 16.3594 14.4359 15.8174 15.1283L8.87736 11.3706C8.89236 11.2492 8.9 11.1255 8.9 11C8.9 10.8745 8.89236 10.7508 8.87736 10.6294L15.8174 6.87167C16.3594 7.56402 17.1253 8 18 8Z" fill="#FF5F00"/>
</svg> 
